<mxfile host="app.diagrams.net" agent="Mozilla/5.0 (Windows NT 10.0; Win64; x64; rv:143.0) Gecko/20100101 Firefox/143.0" version="28.2.7">
  <diagram name="Page-1" id="XY7Cks8zUDy75sF5sD-g">
    <mxGraphModel dx="1965" dy="1592" grid="1" gridSize="10" guides="1" tooltips="1" connect="1" arrows="1" fold="1" page="0" pageScale="1" pageWidth="850" pageHeight="1100" math="0" shadow="0">
      <root>
        <mxCell id="0" />
        <mxCell id="1" parent="0" />
        <mxCell id="CP0EL132fnx70D1OXy9x-5" style="edgeStyle=orthogonalEdgeStyle;rounded=0;orthogonalLoop=1;jettySize=auto;html=1;exitX=0.75;exitY=0;exitDx=0;exitDy=0;entryX=0.75;entryY=1;entryDx=0;entryDy=0;" parent="1" source="CP0EL132fnx70D1OXy9x-1" target="CP0EL132fnx70D1OXy9x-3" edge="1">
          <mxGeometry relative="1" as="geometry" />
        </mxCell>
        <mxCell id="CP0EL132fnx70D1OXy9x-12" style="edgeStyle=orthogonalEdgeStyle;rounded=0;orthogonalLoop=1;jettySize=auto;html=1;exitX=1;exitY=0.25;exitDx=0;exitDy=0;entryX=0;entryY=0.5;entryDx=0;entryDy=0;" parent="1" source="CP0EL132fnx70D1OXy9x-1" target="CP0EL132fnx70D1OXy9x-2" edge="1">
          <mxGeometry relative="1" as="geometry" />
        </mxCell>
        <mxCell id="CP0EL132fnx70D1OXy9x-1" value="UDID" style="rounded=1;whiteSpace=wrap;html=1;" parent="1" vertex="1">
          <mxGeometry x="-680" y="30" width="120" height="60" as="geometry" />
        </mxCell>
        <mxCell id="CP0EL132fnx70D1OXy9x-10" style="edgeStyle=orthogonalEdgeStyle;rounded=0;orthogonalLoop=1;jettySize=auto;html=1;exitX=0.5;exitY=1;exitDx=0;exitDy=0;entryX=1;entryY=0.75;entryDx=0;entryDy=0;" parent="1" source="CP0EL132fnx70D1OXy9x-2" target="CP0EL132fnx70D1OXy9x-1" edge="1">
          <mxGeometry relative="1" as="geometry" />
        </mxCell>
        <mxCell id="CP0EL132fnx70D1OXy9x-2" value="XE" style="rounded=1;whiteSpace=wrap;html=1;" parent="1" vertex="1">
          <mxGeometry x="-350" width="120" height="60" as="geometry" />
        </mxCell>
        <mxCell id="CP0EL132fnx70D1OXy9x-4" style="edgeStyle=orthogonalEdgeStyle;rounded=0;orthogonalLoop=1;jettySize=auto;html=1;exitX=0.25;exitY=1;exitDx=0;exitDy=0;entryX=0.25;entryY=0;entryDx=0;entryDy=0;" parent="1" source="CP0EL132fnx70D1OXy9x-3" target="CP0EL132fnx70D1OXy9x-1" edge="1">
          <mxGeometry relative="1" as="geometry" />
        </mxCell>
        <mxCell id="CP0EL132fnx70D1OXy9x-8" style="edgeStyle=orthogonalEdgeStyle;rounded=0;orthogonalLoop=1;jettySize=auto;html=1;exitX=1;exitY=0.5;exitDx=0;exitDy=0;entryX=0.5;entryY=0;entryDx=0;entryDy=0;" parent="1" source="CP0EL132fnx70D1OXy9x-3" target="CP0EL132fnx70D1OXy9x-2" edge="1">
          <mxGeometry relative="1" as="geometry" />
        </mxCell>
        <mxCell id="CP0EL132fnx70D1OXy9x-3" value="FE" style="rounded=1;whiteSpace=wrap;html=1;" parent="1" vertex="1">
          <mxGeometry x="-680" y="-120" width="120" height="60" as="geometry" />
        </mxCell>
        <mxCell id="CP0EL132fnx70D1OXy9x-6" value="Auth" style="text;html=1;align=center;verticalAlign=middle;resizable=0;points=[];autosize=1;strokeColor=none;fillColor=none;" parent="1" vertex="1">
          <mxGeometry x="-710" y="-32" width="50" height="30" as="geometry" />
        </mxCell>
        <mxCell id="CP0EL132fnx70D1OXy9x-7" value="JWT" style="text;html=1;align=center;verticalAlign=middle;resizable=0;points=[];autosize=1;strokeColor=none;fillColor=none;" parent="1" vertex="1">
          <mxGeometry x="-590" y="-32" width="50" height="30" as="geometry" />
        </mxCell>
        <mxCell id="CP0EL132fnx70D1OXy9x-9" value="JWT" style="text;html=1;align=center;verticalAlign=middle;resizable=0;points=[];autosize=1;strokeColor=none;fillColor=none;" parent="1" vertex="1">
          <mxGeometry x="-370" y="-40" width="50" height="30" as="geometry" />
        </mxCell>
        <mxCell id="CP0EL132fnx70D1OXy9x-11" value="JWT" style="text;html=1;align=center;verticalAlign=middle;resizable=0;points=[];autosize=1;strokeColor=none;fillColor=none;" parent="1" vertex="1">
          <mxGeometry x="-410" y="90" width="50" height="30" as="geometry" />
        </mxCell>
        <mxCell id="CP0EL132fnx70D1OXy9x-13" value="Raw data" style="text;html=1;align=center;verticalAlign=middle;resizable=0;points=[];autosize=1;strokeColor=none;fillColor=none;" parent="1" vertex="1">
          <mxGeometry x="-460" width="70" height="30" as="geometry" />
        </mxCell>
        <mxCell id="CP0EL132fnx70D1OXy9x-22" style="edgeStyle=orthogonalEdgeStyle;rounded=0;orthogonalLoop=1;jettySize=auto;html=1;exitX=0.5;exitY=0;exitDx=0;exitDy=0;entryX=0.5;entryY=0;entryDx=0;entryDy=0;" parent="1" source="CP0EL132fnx70D1OXy9x-18" target="CP0EL132fnx70D1OXy9x-20" edge="1">
          <mxGeometry relative="1" as="geometry" />
        </mxCell>
        <mxCell id="CP0EL132fnx70D1OXy9x-28" style="edgeStyle=orthogonalEdgeStyle;rounded=0;orthogonalLoop=1;jettySize=auto;html=1;exitX=0.75;exitY=1;exitDx=0;exitDy=0;entryX=0;entryY=0.5;entryDx=0;entryDy=0;" parent="1" source="CP0EL132fnx70D1OXy9x-18" target="CP0EL132fnx70D1OXy9x-19" edge="1">
          <mxGeometry relative="1" as="geometry" />
        </mxCell>
        <mxCell id="CP0EL132fnx70D1OXy9x-18" value="FE" style="rounded=1;whiteSpace=wrap;html=1;" parent="1" vertex="1">
          <mxGeometry x="-790" y="263" width="120" height="60" as="geometry" />
        </mxCell>
        <mxCell id="CP0EL132fnx70D1OXy9x-30" style="edgeStyle=orthogonalEdgeStyle;rounded=0;orthogonalLoop=1;jettySize=auto;html=1;exitX=0.75;exitY=0;exitDx=0;exitDy=0;entryX=0.75;entryY=1;entryDx=0;entryDy=0;" parent="1" source="CP0EL132fnx70D1OXy9x-19" target="CP0EL132fnx70D1OXy9x-20" edge="1">
          <mxGeometry relative="1" as="geometry" />
        </mxCell>
        <mxCell id="CP0EL132fnx70D1OXy9x-19" value="UE" style="rounded=1;whiteSpace=wrap;html=1;" parent="1" vertex="1">
          <mxGeometry x="-80" y="260" width="120" height="60" as="geometry" />
        </mxCell>
        <mxCell id="CP0EL132fnx70D1OXy9x-23" style="edgeStyle=orthogonalEdgeStyle;rounded=0;orthogonalLoop=1;jettySize=auto;html=1;exitX=0;exitY=0.5;exitDx=0;exitDy=0;entryX=0.75;entryY=0;entryDx=0;entryDy=0;" parent="1" source="CP0EL132fnx70D1OXy9x-20" target="CP0EL132fnx70D1OXy9x-18" edge="1">
          <mxGeometry relative="1" as="geometry" />
        </mxCell>
        <mxCell id="CP0EL132fnx70D1OXy9x-29" style="edgeStyle=orthogonalEdgeStyle;rounded=0;orthogonalLoop=1;jettySize=auto;html=1;exitX=0.5;exitY=1;exitDx=0;exitDy=0;entryX=0.5;entryY=0;entryDx=0;entryDy=0;" parent="1" source="CP0EL132fnx70D1OXy9x-20" target="CP0EL132fnx70D1OXy9x-19" edge="1">
          <mxGeometry relative="1" as="geometry" />
        </mxCell>
        <mxCell id="CP0EL132fnx70D1OXy9x-20" value="UAID" style="rounded=1;whiteSpace=wrap;html=1;" parent="1" vertex="1">
          <mxGeometry x="-80" y="190" width="120" height="60" as="geometry" />
        </mxCell>
        <mxCell id="CP0EL132fnx70D1OXy9x-24" value="Session ID&lt;br&gt;&lt;div&gt;&lt;br/&gt;&lt;/div&gt;" style="text;html=1;align=center;verticalAlign=middle;resizable=0;points=[];autosize=1;strokeColor=none;fillColor=none;" parent="1" vertex="1">
          <mxGeometry x="290" y="203" width="80" height="40" as="geometry" />
        </mxCell>
        <mxCell id="CP0EL132fnx70D1OXy9x-25" value="ID token" style="text;html=1;align=center;verticalAlign=middle;resizable=0;points=[];autosize=1;strokeColor=none;fillColor=none;" parent="1" vertex="1">
          <mxGeometry x="410" y="200" width="70" height="30" as="geometry" />
        </mxCell>
        <mxCell id="CP0EL132fnx70D1OXy9x-26" value="Credential ID" style="text;html=1;align=center;verticalAlign=middle;resizable=0;points=[];autosize=1;strokeColor=none;fillColor=none;" parent="1" vertex="1">
          <mxGeometry x="520" y="200" width="90" height="30" as="geometry" />
        </mxCell>
        <mxCell id="CP0EL132fnx70D1OXy9x-27" value="SHA256 + HMAC" style="text;html=1;align=center;verticalAlign=middle;whiteSpace=wrap;rounded=0;" parent="1" vertex="1">
          <mxGeometry x="420" y="243" width="60" height="30" as="geometry" />
        </mxCell>
        <mxCell id="CP0EL132fnx70D1OXy9x-31" value="auth" style="text;html=1;align=center;verticalAlign=middle;resizable=0;points=[];autosize=1;strokeColor=none;fillColor=none;" parent="1" vertex="1">
          <mxGeometry x="-495" y="138" width="50" height="30" as="geometry" />
        </mxCell>
        <mxCell id="CP0EL132fnx70D1OXy9x-32" value="3 hash vars" style="text;html=1;align=center;verticalAlign=middle;resizable=0;points=[];autosize=1;strokeColor=none;fillColor=none;" parent="1" vertex="1">
          <mxGeometry x="-515" y="220" width="90" height="30" as="geometry" />
        </mxCell>
        <mxCell id="CP0EL132fnx70D1OXy9x-33" value="3 hash vars" style="text;html=1;align=center;verticalAlign=middle;resizable=0;points=[];autosize=1;strokeColor=none;fillColor=none;" parent="1" vertex="1">
          <mxGeometry x="-500" y="320" width="90" height="30" as="geometry" />
        </mxCell>
        <mxCell id="CP0EL132fnx70D1OXy9x-34" value="id&lt;br&gt;phone no&lt;br&gt;email&lt;br&gt;segment&lt;br&gt;line type&lt;br&gt;user type&lt;br&gt;role&lt;br&gt;device id" style="text;html=1;align=center;verticalAlign=middle;resizable=0;points=[];autosize=1;strokeColor=none;fillColor=none;" parent="1" vertex="1">
          <mxGeometry x="300" y="370" width="70" height="130" as="geometry" />
        </mxCell>
        <mxCell id="CP0EL132fnx70D1OXy9x-35" value="1 unique token - hash" style="text;html=1;align=center;verticalAlign=middle;resizable=0;points=[];autosize=1;strokeColor=none;fillColor=none;" parent="1" vertex="1">
          <mxGeometry x="150" y="420" width="140" height="30" as="geometry" />
        </mxCell>
        <mxCell id="CP0EL132fnx70D1OXy9x-36" value="Consumer" style="text;html=1;align=center;verticalAlign=middle;resizable=0;points=[];autosize=1;strokeColor=none;fillColor=none;" parent="1" vertex="1">
          <mxGeometry x="-540" y="498" width="80" height="30" as="geometry" />
        </mxCell>
        <mxCell id="CP0EL132fnx70D1OXy9x-37" value="Principal" style="text;html=1;align=center;verticalAlign=middle;resizable=0;points=[];autosize=1;strokeColor=none;fillColor=none;" parent="1" vertex="1">
          <mxGeometry x="-495" y="528" width="70" height="30" as="geometry" />
        </mxCell>
        <mxCell id="CP0EL132fnx70D1OXy9x-38" value="Supp" style="text;html=1;align=center;verticalAlign=middle;resizable=0;points=[];autosize=1;strokeColor=none;fillColor=none;" parent="1" vertex="1">
          <mxGeometry x="-485" y="558" width="50" height="30" as="geometry" />
        </mxCell>
        <mxCell id="CP0EL132fnx70D1OXy9x-40" value="Guest - Prepaid" style="text;html=1;align=center;verticalAlign=middle;resizable=0;points=[];autosize=1;strokeColor=none;fillColor=none;" parent="1" vertex="1">
          <mxGeometry x="-510" y="588" width="110" height="30" as="geometry" />
        </mxCell>
        <mxCell id="CP0EL132fnx70D1OXy9x-41" value="SME" style="text;html=1;align=center;verticalAlign=middle;resizable=0;points=[];autosize=1;strokeColor=none;fillColor=none;" parent="1" vertex="1">
          <mxGeometry x="-535" y="630" width="50" height="30" as="geometry" />
        </mxCell>
        <mxCell id="CP0EL132fnx70D1OXy9x-42" value="Principal" style="text;html=1;align=center;verticalAlign=middle;resizable=0;points=[];autosize=1;strokeColor=none;fillColor=none;" parent="1" vertex="1">
          <mxGeometry x="-490" y="650" width="70" height="30" as="geometry" />
        </mxCell>
        <mxCell id="CP0EL132fnx70D1OXy9x-43" value="Supp" style="text;html=1;align=center;verticalAlign=middle;resizable=0;points=[];autosize=1;strokeColor=none;fillColor=none;" parent="1" vertex="1">
          <mxGeometry x="-480" y="680" width="50" height="30" as="geometry" />
        </mxCell>
        <mxCell id="CP0EL132fnx70D1OXy9x-44" value="Guest - Prepaid" style="text;html=1;align=center;verticalAlign=middle;resizable=0;points=[];autosize=1;strokeColor=none;fillColor=none;" parent="1" vertex="1">
          <mxGeometry x="-510" y="710" width="110" height="30" as="geometry" />
        </mxCell>
        <mxCell id="CP0EL132fnx70D1OXy9x-45" value="Owner" style="text;html=1;align=center;verticalAlign=middle;resizable=0;points=[];autosize=1;strokeColor=none;fillColor=none;" parent="1" vertex="1">
          <mxGeometry x="-490" y="740" width="60" height="30" as="geometry" />
        </mxCell>
        <mxCell id="CP0EL132fnx70D1OXy9x-46" value="Non-owner (employee)" style="text;html=1;align=center;verticalAlign=middle;resizable=0;points=[];autosize=1;strokeColor=none;fillColor=none;" parent="1" vertex="1">
          <mxGeometry x="-530" y="770" width="150" height="30" as="geometry" />
        </mxCell>
        <mxCell id="CP0EL132fnx70D1OXy9x-49" value="IC" style="text;html=1;align=center;verticalAlign=middle;resizable=0;points=[];autosize=1;strokeColor=none;fillColor=none;" parent="1" vertex="1">
          <mxGeometry x="-650" y="600" width="40" height="30" as="geometry" />
        </mxCell>
        <mxCell id="CP0EL132fnx70D1OXy9x-52" value="1 unique token - hash" style="text;html=1;align=center;verticalAlign=middle;resizable=0;points=[];autosize=1;strokeColor=none;fillColor=none;" parent="1" vertex="1">
          <mxGeometry x="-380" y="528" width="140" height="30" as="geometry" />
        </mxCell>
        <mxCell id="CP0EL132fnx70D1OXy9x-53" value="1 unique token - hash" style="text;html=1;align=center;verticalAlign=middle;resizable=0;points=[];autosize=1;strokeColor=none;fillColor=none;" parent="1" vertex="1">
          <mxGeometry x="-380" y="558" width="140" height="30" as="geometry" />
        </mxCell>
        <mxCell id="CP0EL132fnx70D1OXy9x-54" value="1 unique token - hash" style="text;html=1;align=center;verticalAlign=middle;resizable=0;points=[];autosize=1;strokeColor=none;fillColor=none;" parent="1" vertex="1">
          <mxGeometry x="-380" y="588" width="140" height="30" as="geometry" />
        </mxCell>
        <mxCell id="CP0EL132fnx70D1OXy9x-55" value="1 unique token - hash" style="text;html=1;align=center;verticalAlign=middle;resizable=0;points=[];autosize=1;strokeColor=none;fillColor=none;" parent="1" vertex="1">
          <mxGeometry x="-380" y="650" width="140" height="30" as="geometry" />
        </mxCell>
        <mxCell id="CP0EL132fnx70D1OXy9x-56" value="1 unique token - hash" style="text;html=1;align=center;verticalAlign=middle;resizable=0;points=[];autosize=1;strokeColor=none;fillColor=none;" parent="1" vertex="1">
          <mxGeometry x="-380" y="680" width="140" height="30" as="geometry" />
        </mxCell>
        <mxCell id="CP0EL132fnx70D1OXy9x-57" value="1 unique token - hash" style="text;html=1;align=center;verticalAlign=middle;resizable=0;points=[];autosize=1;strokeColor=none;fillColor=none;" parent="1" vertex="1">
          <mxGeometry x="-380" y="710" width="140" height="30" as="geometry" />
        </mxCell>
        <mxCell id="CP0EL132fnx70D1OXy9x-58" value="1 unique token - hash" style="text;html=1;align=center;verticalAlign=middle;resizable=0;points=[];autosize=1;strokeColor=none;fillColor=none;" parent="1" vertex="1">
          <mxGeometry x="-380" y="740" width="140" height="30" as="geometry" />
        </mxCell>
        <mxCell id="CP0EL132fnx70D1OXy9x-59" value="1 unique token - hash" style="text;html=1;align=center;verticalAlign=middle;resizable=0;points=[];autosize=1;strokeColor=none;fillColor=none;" parent="1" vertex="1">
          <mxGeometry x="-380" y="770" width="140" height="30" as="geometry" />
        </mxCell>
      </root>
    </mxGraphModel>
  </diagram>
</mxfile>
